<?xml version="1.0" standalone="no"?><!DOCTYPE svg PUBLIC "-//W3C//DTD SVG 1.1//EN" "http://www.w3.org/Graphics/SVG/1.1/DTD/svg11.dtd"><svg t="1555404309188" class="icon" style="" viewBox="0 0 1024 1024" version="1.1" xmlns="http://www.w3.org/2000/svg" p-id="3057" xmlns:xlink="http://www.w3.org/1999/xlink" width="32" height="32"><defs><style type="text/css"></style></defs><path d="M692.337778 351.288889a319.431111 319.431111 0 0 1 34.986666 2.275555C696.035556 207.644444 540.444444 99.271111 362.097778 99.271111 162.986667 99.271111 0 234.951111 0 407.04c0 99.555556 54.328889 181.191111 144.782222 244.622222l-36.124444 108.942222 126.577778-63.431111a623.786667 623.786667 0 0 0 126.862222 18.204445h33.848889a271.644444 271.644444 0 0 1-11.093334-75.946667c0-158.151111 135.964444-286.72 307.768889-286.72zM497.777778 253.155556a42.666667 42.666667 0 0 1 45.226666 45.226666 42.666667 42.666667 0 0 1-45.226666 45.226667 50.915556 50.915556 0 0 1-54.328889-45.226667A50.631111 50.631111 0 0 1 497.777778 253.155556z m-253.44 90.453333a50.915556 50.915556 0 0 1-54.613334-45.226667A50.915556 50.915556 0 0 1 244.337778 253.155556a42.666667 42.666667 0 0 1 45.226666 45.226666 42.666667 42.666667 0 0 1-45.226666 45.226667z m0 0" p-id="3058" fill="#a6abb2"></path><path d="M1024 633.742222C1024 488.96 878.08 369.777778 715.377778 369.777778c-172.373333 0-308.053333 118.044444-308.053334 262.826666s135.68 262.826667 308.053334 262.826667a455.111111 455.111111 0 0 0 109.511111-17.066667l99.271111 54.613334-28.444444-90.453334c73.102222-54.897778 128.284444-127.146667 128.284444-208.782222z m-408.462222-45.511111a36.124444 36.124444 0 1 1 0-72.248889 41.244444 41.244444 0 0 1 45.226666 36.124445 41.244444 41.244444 0 0 1-45.226666 36.124444z m199.111111 0a36.124444 36.124444 0 0 1 0-72.248889 41.528889 41.528889 0 0 1 45.226667 36.124445 41.244444 41.244444 0 0 1-45.226667 36.124444z m0 0" p-id="3059" fill="#a6abb2"></path></svg>